<?xml version="1.0" encoding="UTF-8"?>
<svg width="25px" height="14px" viewBox="0 0 25 14" version="1.1" xmlns="http://www.w3.org/2000/svg" xmlns:xlink="http://www.w3.org/1999/xlink">
    <title>Icon/Calendar Copy</title>
    <defs>
        <path d="M12.082922,18.4323791 C12.3040474,18.4323791 12.4935834,18.3534057 12.6515301,18.195459 L12.6515301,18.195459 L23.76308,7.08390918 C23.9210267,6.92596249 24,6.73642646 24,6.51530109 C24,6.29417572 23.9210267,6.10463968 23.76308,5.94669299 C23.6051333,5.7887463 23.4155972,5.70977295 23.1944719,5.70977295 C22.9733465,5.70977295 22.7838105,5.7887463 22.6258638,5.94669299 L22.6258638,5.94669299 L12.082922,16.4896347 L1.37413623,5.78084896 C1.21618954,5.63869694 1.0266535,5.56762093 0.805528134,5.56762093 C0.584402764,5.56762093 0.394866732,5.63869694 0.236920039,5.78084896 C0.157946693,5.85982231 0.0987166831,5.95064166 0.0592300099,6.05330701 C0.0197433366,6.15597236 0,6.25468904 0,6.34945706 C0,6.46001974 0.0197433366,6.56663376 0.0592300099,6.66929911 C0.0987166831,6.77196446 0.157946693,6.86278381 0.236920039,6.94175716 L0.236920039,6.94175716 L11.5143139,18.195459 C11.6722606,18.3534057 11.8617966,18.4323791 12.082922,18.4323791 Z" id="path-1"></path>
    </defs>
    <g id="Page-2" stroke="none" stroke-width="1" fill="none" fill-rule="evenodd">
        <g id="Welcome" transform="translate(-1304.000000, -56.000000)">
            <g id="Group-6" transform="translate(1066.500000, 29.000000)">
                <g id="Icon/Calendar-Copy" transform="translate(238.000000, 22.000000)">
                    <mask id="mask-2" fill="white">
                        <use xlink:href="#path-1"></use>
                    </mask>
                    <use id="" fill="#F7915A" xlink:href="#path-1"></use>
                </g>
            </g>
        </g>
    </g>
</svg>